<mxfile host="app.diagrams.net" modified="2024-02-05T00:24:06.354Z" agent="Mozilla/5.0 (Windows NT 10.0; Win64; x64) AppleWebKit/537.36 (KHTML, like Gecko) Chrome/121.0.0.0 Safari/537.36" etag="H3ypg0PNekrtq4Rj9Nr7" version="23.1.1" type="device">
  <diagram name="Page-1" id="Lr-ImqbqW6bDifzOI2E6">
    <mxGraphModel dx="1077" dy="572" grid="1" gridSize="10" guides="1" tooltips="1" connect="1" arrows="1" fold="1" page="1" pageScale="1" pageWidth="827" pageHeight="1169" math="0" shadow="0">
      <root>
        <mxCell id="0" />
        <mxCell id="1" parent="0" />
        <mxCell id="q0A7YQSzL_b45mOmpb6u-1" value=":HostNetworkObject" style="shape=umlLifeline;perimeter=lifelinePerimeter;whiteSpace=wrap;html=1;container=1;dropTarget=0;collapsible=0;recursiveResize=0;outlineConnect=0;portConstraint=eastwest;newEdgeStyle={&quot;curved&quot;:0,&quot;rounded&quot;:0};" vertex="1" parent="1">
          <mxGeometry x="110" y="120" width="130" height="300" as="geometry" />
        </mxCell>
        <mxCell id="q0A7YQSzL_b45mOmpb6u-14" value="" style="html=1;points=[[0,0,0,0,5],[0,1,0,0,-5],[1,0,0,0,5],[1,1,0,0,-5]];perimeter=orthogonalPerimeter;outlineConnect=0;targetShapes=umlLifeline;portConstraint=eastwest;newEdgeStyle={&quot;curved&quot;:0,&quot;rounded&quot;:0};" vertex="1" parent="q0A7YQSzL_b45mOmpb6u-1">
          <mxGeometry x="60" y="70" width="10" height="30" as="geometry" />
        </mxCell>
        <mxCell id="q0A7YQSzL_b45mOmpb6u-2" value=":HostNetworkManager" style="shape=umlLifeline;perimeter=lifelinePerimeter;whiteSpace=wrap;html=1;container=1;dropTarget=0;collapsible=0;recursiveResize=0;outlineConnect=0;portConstraint=eastwest;newEdgeStyle={&quot;curved&quot;:0,&quot;rounded&quot;:0};" vertex="1" parent="1">
          <mxGeometry x="310" y="120" width="130" height="300" as="geometry" />
        </mxCell>
        <mxCell id="q0A7YQSzL_b45mOmpb6u-4" value="" style="html=1;points=[[0,0,0,0,5],[0,1,0,0,-5],[1,0,0,0,5],[1,1,0,0,-5]];perimeter=orthogonalPerimeter;outlineConnect=0;targetShapes=umlLifeline;portConstraint=eastwest;newEdgeStyle={&quot;curved&quot;:0,&quot;rounded&quot;:0};" vertex="1" parent="q0A7YQSzL_b45mOmpb6u-2">
          <mxGeometry x="-140" y="190" width="10" height="50" as="geometry" />
        </mxCell>
        <mxCell id="q0A7YQSzL_b45mOmpb6u-7" value="" style="html=1;points=[[0,0,0,0,5],[0,1,0,0,-5],[1,0,0,0,5],[1,1,0,0,-5]];perimeter=orthogonalPerimeter;outlineConnect=0;targetShapes=umlLifeline;portConstraint=eastwest;newEdgeStyle={&quot;curved&quot;:0,&quot;rounded&quot;:0};" vertex="1" parent="q0A7YQSzL_b45mOmpb6u-2">
          <mxGeometry x="60" y="220" width="10" height="90" as="geometry" />
        </mxCell>
        <mxCell id="q0A7YQSzL_b45mOmpb6u-8" value="transform changed" style="html=1;verticalAlign=bottom;startArrow=oval;startFill=1;endArrow=block;startSize=8;curved=0;rounded=0;" edge="1" parent="q0A7YQSzL_b45mOmpb6u-2" target="q0A7YQSzL_b45mOmpb6u-4">
          <mxGeometry width="60" relative="1" as="geometry">
            <mxPoint x="-260" y="200" as="sourcePoint" />
            <mxPoint x="-180" y="200" as="targetPoint" />
          </mxGeometry>
        </mxCell>
        <mxCell id="q0A7YQSzL_b45mOmpb6u-9" value="request synchronisation" style="html=1;verticalAlign=bottom;endArrow=block;curved=0;rounded=0;" edge="1" parent="q0A7YQSzL_b45mOmpb6u-2" target="q0A7YQSzL_b45mOmpb6u-7">
          <mxGeometry width="80" relative="1" as="geometry">
            <mxPoint x="-130" y="230" as="sourcePoint" />
            <mxPoint x="-50" y="230" as="targetPoint" />
          </mxGeometry>
        </mxCell>
        <mxCell id="q0A7YQSzL_b45mOmpb6u-11" value="move object" style="html=1;align=left;spacingLeft=2;endArrow=block;rounded=0;edgeStyle=orthogonalEdgeStyle;curved=0;rounded=0;exitX=1;exitY=1;exitDx=0;exitDy=-5;exitPerimeter=0;" edge="1" parent="q0A7YQSzL_b45mOmpb6u-2" source="q0A7YQSzL_b45mOmpb6u-7">
          <mxGeometry x="0.3335" relative="1" as="geometry">
            <mxPoint x="65" y="270" as="sourcePoint" />
            <Array as="points">
              <mxPoint x="95" y="245" />
              <mxPoint x="95" y="300" />
            </Array>
            <mxPoint x="70" y="300" as="targetPoint" />
            <mxPoint as="offset" />
          </mxGeometry>
        </mxCell>
        <mxCell id="q0A7YQSzL_b45mOmpb6u-13" value="" style="html=1;points=[[0,0,0,0,5],[0,1,0,0,-5],[1,0,0,0,5],[1,1,0,0,-5]];perimeter=orthogonalPerimeter;outlineConnect=0;targetShapes=umlLifeline;portConstraint=eastwest;newEdgeStyle={&quot;curved&quot;:0,&quot;rounded&quot;:0};" vertex="1" parent="q0A7YQSzL_b45mOmpb6u-2">
          <mxGeometry x="60" y="60" width="10" height="50" as="geometry" />
        </mxCell>
        <mxCell id="q0A7YQSzL_b45mOmpb6u-3" value=":FMETP_Stream" style="shape=umlLifeline;perimeter=lifelinePerimeter;whiteSpace=wrap;html=1;container=1;dropTarget=0;collapsible=0;recursiveResize=0;outlineConnect=0;portConstraint=eastwest;newEdgeStyle={&quot;curved&quot;:0,&quot;rounded&quot;:0};" vertex="1" parent="1">
          <mxGeometry x="510" y="120" width="130" height="300" as="geometry" />
        </mxCell>
        <mxCell id="q0A7YQSzL_b45mOmpb6u-18" value="" style="html=1;points=[[0,0,0,0,5],[0,1,0,0,-5],[1,0,0,0,5],[1,1,0,0,-5]];perimeter=orthogonalPerimeter;outlineConnect=0;targetShapes=umlLifeline;portConstraint=eastwest;newEdgeStyle={&quot;curved&quot;:0,&quot;rounded&quot;:0};" vertex="1" parent="q0A7YQSzL_b45mOmpb6u-3">
          <mxGeometry x="60" y="80" width="10" height="200" as="geometry" />
        </mxCell>
        <mxCell id="q0A7YQSzL_b45mOmpb6u-15" value="get all network object" style="html=1;verticalAlign=bottom;endArrow=block;curved=0;rounded=0;entryX=1;entryY=0;entryDx=0;entryDy=5;entryPerimeter=0;" edge="1" target="q0A7YQSzL_b45mOmpb6u-14" parent="1" source="q0A7YQSzL_b45mOmpb6u-13">
          <mxGeometry relative="1" as="geometry">
            <mxPoint x="250" y="194.9999999999999" as="sourcePoint" />
          </mxGeometry>
        </mxCell>
        <mxCell id="q0A7YQSzL_b45mOmpb6u-16" value="list objects" style="html=1;verticalAlign=bottom;endArrow=open;dashed=1;endSize=8;curved=0;rounded=0;exitX=1;exitY=1;exitDx=0;exitDy=-5;exitPerimeter=0;" edge="1" source="q0A7YQSzL_b45mOmpb6u-14" parent="1" target="q0A7YQSzL_b45mOmpb6u-13">
          <mxGeometry relative="1" as="geometry">
            <mxPoint x="100" y="265" as="targetPoint" />
          </mxGeometry>
        </mxCell>
        <mxCell id="q0A7YQSzL_b45mOmpb6u-17" value="populate synchronized list" style="html=1;verticalAlign=bottom;endArrow=block;curved=0;rounded=0;" edge="1" parent="1" target="q0A7YQSzL_b45mOmpb6u-18">
          <mxGeometry width="80" relative="1" as="geometry">
            <mxPoint x="380" y="220" as="sourcePoint" />
            <mxPoint x="575" y="220" as="targetPoint" />
          </mxGeometry>
        </mxCell>
        <mxCell id="q0A7YQSzL_b45mOmpb6u-22" value="Object transform synchronization is performed by &quot;FMETP_Stream&quot; as long as client and server are connected." style="shape=note;whiteSpace=wrap;html=1;backgroundOutline=1;darkOpacity=0.05;fontSize=10;size=15;" vertex="1" parent="1">
          <mxGeometry x="400" y="250" width="160" height="80" as="geometry" />
        </mxCell>
      </root>
    </mxGraphModel>
  </diagram>
</mxfile>
